<?xml version="1.0" encoding="UTF-8"?>
<!DOCTYPE svg PUBLIC "-//W3C//DTD SVG 1.1//EN" "http://www.w3.org/Graphics/SVG/1.1/DTD/svg11.dtd">
<svg xmlns="http://www.w3.org/2000/svg" version="1.1" width="500px" height="500px" style="shape-rendering:geometricPrecision; text-rendering:geometricPrecision; image-rendering:optimizeQuality; fill-rule:evenodd; clip-rule:evenodd" xmlns:xlink="http://www.w3.org/1999/xlink">
<g><path style="opacity:1" fill="#f1f3f5" d="M 359.5,192.5 C 362.15,193.247 364.816,194.247 367.5,195.5C 366.597,197.62 365.263,197.954 363.5,196.5C 362.154,198.013 360.654,199.347 359,200.5C 351.523,199.496 344.023,199.496 336.5,200.5C 323.393,200.604 310.393,200.604 297.5,200.5C 293.346,200.369 289.346,199.536 285.5,198C 287.54,195.664 289.873,193.831 292.5,192.5C 303.67,191.72 315.004,191.054 326.5,190.5C 337.663,191.05 348.663,191.716 359.5,192.5 Z"/></g>
<g><path style="opacity:1" fill="#e0e7ec" d="M 292.5,192.5 C 289.873,193.831 287.54,195.664 285.5,198C 289.346,199.536 293.346,200.369 297.5,200.5C 277.887,202.097 258.22,204.431 238.5,207.5C 240.187,205.834 242.187,204.5 244.5,203.5C 246.335,204.192 248.168,203.858 250,202.5C 252.737,203.61 255.571,203.777 258.5,203C 257.833,201.667 256.833,200.667 255.5,200C 255.833,199.667 256.167,199.333 256.5,199C 251.512,198.913 246.512,199.08 241.5,199.5C 258.311,195.765 275.311,193.432 292.5,192.5 Z"/></g>
<g><path style="opacity:1" fill="#dee4ee" d="M 359.5,192.5 C 367.205,192.937 374.872,193.771 382.5,195C 383.276,196.77 383.11,198.603 382,200.5C 369.19,219.646 352.856,234.979 333,246.5C 331.743,246.15 331.409,245.483 332,244.5C 346.214,233.457 357.714,220.123 366.5,204.5C 356.505,202.287 346.505,200.953 336.5,200.5C 344.023,199.496 351.523,199.496 359,200.5C 360.654,199.347 362.154,198.013 363.5,196.5C 365.263,197.954 366.597,197.62 367.5,195.5C 364.816,194.247 362.15,193.247 359.5,192.5 Z"/></g>
<g><path style="opacity:1" fill="#e8edf1" d="M 238.5,207.5 C 224.253,210.554 209.92,213.887 195.5,217.5C 193.076,217.808 190.743,217.474 188.5,216.5C 189.825,214.408 191.491,212.741 193.5,211.5C 209.172,206.221 225.172,202.221 241.5,199.5C 246.512,199.08 251.512,198.913 256.5,199C 256.167,199.333 255.833,199.667 255.5,200C 256.833,200.667 257.833,201.667 258.5,203C 255.571,203.777 252.737,203.61 250,202.5C 248.168,203.858 246.335,204.192 244.5,203.5C 242.187,204.5 240.187,205.834 238.5,207.5 Z"/></g>
<g><path style="opacity:1" fill="#cad2db" d="M 193.5,211.5 C 191.491,212.741 189.825,214.408 188.5,216.5C 190.743,217.474 193.076,217.808 195.5,217.5C 171.089,224.37 147.423,233.537 124.5,245C 123.056,245.781 121.723,245.614 120.5,244.5C 143.273,230.624 167.607,219.624 193.5,211.5 Z"/></g>
<g><path style="opacity:1" fill="#a0b1ce" d="M 275.5,273.5 C 284.986,272.506 294.652,272.173 304.5,272.5C 304.5,273.833 304.5,275.167 304.5,276.5C 300.833,276.5 297.167,276.5 293.5,276.5C 296.689,275.834 300.023,275.167 303.5,274.5C 294.19,273.502 284.857,273.168 275.5,273.5 Z"/></g>
<g><path style="opacity:1" fill="#edf0f4" d="M 217.5,272.5 C 219.5,272.5 221.5,272.5 223.5,272.5C 223.649,284.01 223.649,295.677 223.5,307.5C 221.5,307.5 219.5,307.5 217.5,307.5C 217.5,295.833 217.5,284.167 217.5,272.5 Z"/></g>
<g><path style="opacity:1" fill="#dce0ed" d="M 392.5,272.5 C 395.044,272.104 397.211,272.771 399,274.5C 403.059,284.285 407.392,293.952 412,303.5C 412.49,304.793 412.657,306.127 412.5,307.5C 410.076,307.808 407.743,307.474 405.5,306.5C 404.305,304.249 403.305,301.915 402.5,299.5C 398.698,298.652 394.865,297.985 391,297.5C 389.105,297.615 387.438,298.282 386,299.5C 385.115,302 383.948,304.333 382.5,306.5C 380.833,307.833 379.167,307.833 377.5,306.5C 382.515,295.141 387.515,283.807 392.5,272.5 Z M 393.5,281.5 C 395.956,284.987 397.956,288.821 399.5,293C 395.833,293.667 392.167,293.667 388.5,293C 390.646,289.4 392.313,285.567 393.5,281.5 Z"/></g>
<g><path style="opacity:1" fill="#dee3e8" d="M 177.5,272.5 C 184.589,272.116 191.589,272.616 198.5,274C 202.764,278.168 203.597,283.002 201,288.5C 199.365,289.726 197.865,291.059 196.5,292.5C 199.5,297.167 202.5,301.833 205.5,306.5C 202.833,307.833 200.167,307.833 197.5,306.5C 194.667,302.167 191.833,297.833 189,293.5C 187.333,292.167 185.667,292.167 184,293.5C 183.825,298.019 183.325,302.353 182.5,306.5C 180.833,306.5 179.167,306.5 177.5,306.5C 177.5,295.167 177.5,283.833 177.5,272.5 Z M 183.5,276.5 C 187.257,276.071 190.757,276.737 194,278.5C 196.052,281.46 195.886,284.293 193.5,287C 190.312,288.316 186.978,288.816 183.5,288.5C 183.5,284.5 183.5,280.5 183.5,276.5 Z"/></g>
<g><path style="opacity:1" fill="#eff2f7" d="M 275.5,273.5 C 284.857,273.168 294.19,273.502 303.5,274.5C 300.023,275.167 296.689,275.834 293.5,276.5C 293.535,286.76 293.202,297.093 292.5,307.5C 290.5,307.5 288.5,307.5 286.5,307.5C 286.666,297.494 286.5,287.494 286,277.5C 282.606,276.544 279.106,276.211 275.5,276.5C 275.5,275.5 275.5,274.5 275.5,273.5 Z"/></g>
<g><path style="opacity:1" fill="#536179" d="M 177.5,272.5 C 177.5,283.833 177.5,295.167 177.5,306.5C 179.167,306.5 180.833,306.5 182.5,306.5C 180.735,307.461 178.735,307.795 176.5,307.5C 176.172,295.655 176.505,283.988 177.5,272.5 Z"/></g>
<g><path style="opacity:1" fill="#dde5eb" d="M 349.5,271.5 C 354.742,271.023 359.742,271.856 364.5,274C 366.361,275.028 367.695,276.528 368.5,278.5C 368.113,279.72 367.28,280.387 366,280.5C 360.712,275.641 354.879,274.808 348.5,278C 341.313,286.982 341.98,295.315 350.5,303C 356.809,304.681 362.142,303.181 366.5,298.5C 368.283,299.348 368.783,300.681 368,302.5C 366.189,304.543 364.022,306.043 361.5,307C 343.197,309.696 335.03,301.863 337,283.5C 339.751,277.913 343.918,273.913 349.5,271.5 Z"/></g>
<g><path style="opacity:1" fill="#e5edf1" d="M 316.5,272.5 C 318.792,272.244 320.959,272.577 323,273.5C 323.667,284.167 323.667,294.833 323,305.5C 321.246,307.25 319.079,307.917 316.5,307.5C 316.5,295.833 316.5,284.167 316.5,272.5 Z"/></g>
<g><path style="opacity:1" fill="#d3d8de" d="M 101.5,272.5 C 103.167,272.5 104.833,272.5 106.5,272.5C 110.432,283.035 114.932,293.368 120,303.5C 120.49,304.793 120.657,306.127 120.5,307.5C 118.473,307.662 116.473,307.495 114.5,307C 112.89,304.689 111.557,302.189 110.5,299.5C 105.304,297.592 99.9709,297.425 94.5,299C 93.0708,301.69 92.0708,304.523 91.5,307.5C 89.8333,307.5 88.1667,307.5 86.5,307.5C 86.3433,306.127 86.51,304.793 87,303.5C 91.7605,293.012 96.5939,282.678 101.5,272.5 Z M 101.5,281.5 C 104.447,284.995 106.447,288.995 107.5,293.5C 103.818,293.665 100.152,293.499 96.5,293C 98.4498,289.24 100.117,285.407 101.5,281.5 Z"/></g>
<g><path style="opacity:1" fill="#d7dee4" d="M 250.5,272.5 C 252.467,272.261 254.301,272.594 256,273.5C 261.162,284.81 265.996,296.144 270.5,307.5C 268.076,307.808 265.743,307.474 263.5,306.5C 262.294,303.921 260.961,301.421 259.5,299C 254.136,298.171 248.802,298.337 243.5,299.5C 242.695,301.915 241.695,304.249 240.5,306.5C 238.994,307.747 237.494,307.747 236,306.5C 239.957,294.905 244.791,283.572 250.5,272.5 Z M 251.5,281.5 C 253.685,285.213 255.352,289.213 256.5,293.5C 253.102,293.82 249.768,293.487 246.5,292.5C 248.367,288.888 250.034,285.221 251.5,281.5 Z"/></g>
<g><path style="opacity:1" fill="#d0d6dc" d="M 132.5,272.5 C 139.906,272.152 147.239,272.652 154.5,274C 163.277,279.169 166.111,286.669 163,296.5C 160.744,301.757 156.91,305.257 151.5,307C 145.175,307.5 138.842,307.666 132.5,307.5C 131.403,295.673 131.403,284.006 132.5,272.5 Z M 139.5,276.5 C 154.325,276.109 159.492,283.109 155,297.5C 151.23,302.881 146.063,304.881 139.5,303.5C 139.5,294.5 139.5,285.5 139.5,276.5 Z"/></g>
</svg>
